PathFileType	4	(X/Y/Z)	TRC_standard
DataRate	CameraRate	NumFrames	NumMarkers	Units	OrigDataRate	OrigDataStartFrame	OrigNumFrames
100.00	100.00	       4	33	mm	100.00	1955	       2234
Frame#	Time	T10			C7			CLAV			RACR1			LACR1			RPSI			LPSI			RASI			LASI			LTH2			LTH1			RTH2			RTH3			RTH1			RLFC			RTB1			RTB3			RTB2			LLFC			LTB1			LTB3			LTB2			LLMAL			LMMAL			RLMAL			RCAL			RMT5			RMT1			LMT5			LMT1			LTH3			LCAL			LToe			
		X1	Y1	Z1	X2	Y2	Z2	X3	Y3	Z3	X4	Y4	Z4	X5	Y5	Z5	X6	Y6	Z6	X7	Y7	Z7	X8	Y8	Z8	X9	Y9	Z9	X10	Y10	Z10	X11	Y11	Z11	X12	Y12	Z12	X13	Y13	Z13	X14	Y14	Z14	X15	Y15	Z15	X16	Y16	Z16	X17	Y17	Z17	X18	Y18	Z18	X19	Y19	Z19	X20	Y20	Z20	X21	Y21	Z21	X22	Y22	Z22	X23	Y23	Z23	X24	Y24	Z24	X25	Y25	Z25	X26	Y26	Z26	X27	Y27	Z27	X28	Y28	Z28	X29	Y29	Z29	X30	Y30	Z30	X31	Y31	Z31	X32	Y32	Z32	X33	Y33	Z33	
1955	19.540000	716.724548	1219.123169	-522.052917	716.936279	1476.293945	-395.567444	740.794556	1319.878662	-300.386414	563.208130	1418.510742	-353.041901	900.555847	1425.376343	-403.655243	673.864685	1009.453064	-593.572571	761.889526	1006.782959	-593.101013	592.338745	963.980591	-361.317810	846.142395	970.161743	-359.611481	920.179382	771.551147	-375.360474	874.315979	859.789734	-349.574738	605.637756	674.835266	-422.346649	557.949646	746.835144	-429.199585	616.486511	786.153992	-371.321960	596.929749	484.773743	-562.302307	648.509705	370.375061	-571.546875	622.457886	303.617218	-619.054810	651.378479	254.782532	-635.242126	867.267456	510.422302	-296.878204	820.486938	410.675812	-230.993378	851.231812	340.741852	-243.523666	812.540222	290.811279	-226.297485	839.271118	81.852692	-255.709778	790.430847	31.267412	-302.274384	631.990051	100.696236	-757.263062	666.073730	77.136513	-834.304626	632.891663	45.607590	-662.322083	712.026367	47.495499	-636.288696	854.612183	57.700668	-134.586029	787.871277	78.873093	-106.259331	887.121033	721.482178	-319.515533	0.000000	0.000000	0.000000	0.000000	0.000000	0.000000	
1956	19.550000	718.104187	1219.106934	-521.274597	718.297668	1476.273071	-394.847198	741.901184	1319.829956	-299.604584	564.435242	1418.628784	-352.631348	901.901672	1425.189209	-402.620270	675.363159	1009.575928	-592.771118	763.401733	1007.068054	-592.220215	593.524475	963.652649	-360.757416	847.304138	970.234253	-358.648224	920.840698	771.639221	-374.267029	875.298706	859.801392	-348.457153	606.862732	674.418762	-423.134674	559.343750	746.479248	-429.631195	617.788025	785.585327	-371.481689	597.783936	485.114594	-564.371948	648.816650	370.597260	-574.913330	622.658569	304.727905	-623.420898	651.461731	255.940292	-640.230591	867.259277	510.015625	-297.434265	819.761292	409.544434	-233.232956	850.625916	339.778198	-246.193848	811.668091	289.591278	-230.103745	838.499512	81.347908	-262.225708	790.021545	31.500772	-309.849640	631.802856	103.505882	-764.311523	666.090576	81.430099	-841.552002	632.795227	45.675175	-670.760437	711.837891	47.342033	-645.035278	853.840027	56.103123	-140.826141	786.746887	75.987976	-114.082474	887.366028	721.368958	-318.690277	0.000000	0.000000	0.000000	0.000000	0.000000	0.000000	
1957	19.560000	719.521729	1219.177246	-520.426697	719.702271	1476.338989	-394.065857	743.042786	1319.884644	-298.752563	565.706787	1418.852661	-352.160706	903.287659	1425.092163	-401.490997	676.857727	1009.787659	-591.876465	764.912415	1007.466919	-591.255249	594.761047	963.414917	-360.114563	848.500916	970.413879	-357.613586	921.564270	771.847168	-373.210541	876.340332	859.898193	-347.301086	608.107056	674.093628	-423.583344	560.757385	746.198303	-429.822083	619.136230	785.145752	-371.466095	598.626648	485.464783	-565.976379	649.056213	370.831726	-577.843018	622.811707	305.934662	-627.396667	651.472412	257.200073	-644.850342	867.309937	509.657867	-298.148041	819.118530	408.407684	-235.713806	850.089233	338.816498	-249.168045	810.875122	288.371704	-234.225449	837.841003	80.874786	-269.175964	789.743347	31.789227	-317.873413	631.601379	106.535019	-771.092102	666.162659	86.091942	-848.455383	632.707153	45.753590	-679.208862	711.652710	47.181538	-653.851990	853.062988	54.350952	-147.839844	785.757141	73.123726	-122.056725	887.705078	721.341309	-317.921448	0.000000	0.000000	0.000000	0.000000	0.000000	0.000000	
1958	19.570000	720.975159	1219.333374	-519.517090	721.147339	1476.490234	-393.229767	744.217224	1320.040894	-297.837524	567.020447	1419.179565	-351.635223	904.710693	1425.083252	-400.274841	678.348206	1010.084351	-590.899414	766.421082	1007.975830	-590.214355	596.043884	963.268433	-359.400452	849.728394	970.698303	-356.514069	922.356018	772.166321	-372.205414	877.440247	860.073425	-346.116913	609.355652	673.859375	-423.682098	562.178894	745.993286	-429.769928	620.521362	784.839233	-371.276276	599.442688	485.813354	-567.089722	649.214844	371.070953	-580.304382	622.908081	307.230255	-630.948853	651.398254	258.555969	-649.063843	867.423889	509.342621	-299.039886	818.565735	407.274384	-238.429993	849.629028	337.862396	-252.427872	810.170776	287.165771	-238.628738	837.296631	80.436409	-276.467926	789.591980	32.121891	-326.229553	631.382996	109.784874	-777.562683	666.290222	91.131264	-854.960388	632.629944	45.852146	-687.657349	711.473572	47.022949	-662.731567	852.328308	52.538204	-155.403427	784.897156	70.347633	-130.083694	888.147400	721.388611	-317.226868	0.000000	0.000000	0.000000	0.000000	0.000000	0.000000	
